<?xml version="1.0" encoding="UTF-8"?>
<svg xmlns="http://www.w3.org/2000/svg" viewBox="0 0 28 28" width="32" height="32">
  <rect width="28" height="28" rx="8" ry="8" fill="#009b72"/>
  <g transform="translate(14,14) translate(-7,-7)">
    <path d="M4 2C3 2 2 3 2 4v2c0 .8-.5 1-1 1s1 .2 1 1v2c0 1 1 2 2 2" stroke="#ffffff" stroke-width="1.6" stroke-linecap="round" fill="none"/><path d="M10 2c1 0 2 1 2 2v2c0 .8.5 1 1 1s-1 .2-1 1v2c0 1-1 2-2 2" stroke="#ffffff" stroke-width="1.6" stroke-linecap="round" fill="none"/>
  </g>
</svg>